<svg width="24" height="24" viewBox="0 0 24 24" fill="none" xmlns="http://www.w3.org/2000/svg">
<path fill-rule="evenodd" clip-rule="evenodd" d="M10.3097 2.25002H13.6912C13.9076 2.24988 14.0961 2.24976 14.2741 2.27819C14.9774 2.3905 15.586 2.82915 15.915 3.46085C15.9982 3.62074 16.0577 3.79963 16.126 4.00496L16.2376 4.33986C16.2565 4.39655 16.2619 4.4126 16.2665 4.42524C16.4416 4.90936 16.8957 5.23663 17.4103 5.24967C17.4239 5.25001 17.4404 5.25007 17.5005 5.25007H20.5005C20.9147 5.25007 21.2505 5.58586 21.2505 6.00008C21.2505 6.41429 20.9147 6.75008 20.5005 6.75008H3.50025C3.08603 6.75008 2.75024 6.41429 2.75024 6.00008C2.75024 5.58586 3.08603 5.25007 3.50025 5.25007H6.50037C6.56041 5.25007 6.57699 5.25001 6.59052 5.24967C7.10517 5.23662 7.5592 4.90938 7.73432 4.42526C7.73892 4.41254 7.74422 4.39683 7.76321 4.33986L7.87481 4.00498C7.94311 3.79966 8.00262 3.62075 8.08588 3.46085C8.41483 2.82915 9.02344 2.3905 9.72674 2.27819C9.90477 2.24976 10.0933 2.24988 10.3097 2.25002ZM9.00846 5.25007C9.05997 5.14904 9.10562 5.04407 9.14489 4.93551C9.15681 4.90254 9.16851 4.86745 9.18353 4.82236L9.28334 4.52295C9.37451 4.24944 9.3955 4.19365 9.41632 4.15366C9.52597 3.94309 9.72884 3.79687 9.96328 3.75944C10.0078 3.75233 10.0673 3.75005 10.3557 3.75005H13.6452C13.9335 3.75005 13.993 3.75233 14.0376 3.75944C14.272 3.79687 14.4749 3.94309 14.5845 4.15366C14.6053 4.19365 14.6263 4.24942 14.7175 4.52295L14.8173 4.82218L14.856 4.93553C14.8952 5.04408 14.9409 5.14905 14.9924 5.25007H9.00846Z" fill="black"/>
<path d="M5.91537 8.45021C5.88781 8.03691 5.53043 7.7242 5.11713 7.75176C4.70383 7.77931 4.39112 8.13669 4.41867 8.54999L4.88213 15.5018C4.96762 16.7845 5.03668 17.8207 5.19866 18.6338C5.36706 19.4791 5.65348 20.1852 6.24508 20.7387C6.83668 21.2921 7.56024 21.5309 8.4149 21.6427C9.23693 21.7503 10.2754 21.7503 11.5609 21.7502H12.4398C13.7254 21.7503 14.7639 21.7503 15.5859 21.6427C16.4406 21.5309 17.1642 21.2921 17.7558 20.7387C18.3474 20.1852 18.6338 19.4791 18.8022 18.6338C18.9642 17.8207 19.0332 16.7846 19.1187 15.5018L19.5822 8.54999C19.6097 8.13669 19.297 7.77931 18.8837 7.75176C18.4704 7.7242 18.113 8.03691 18.0855 8.45021L17.6255 15.3494C17.5357 16.6973 17.4716 17.6351 17.3311 18.3407C17.1947 19.0252 17.0044 19.3875 16.731 19.6433C16.4576 19.8991 16.0834 20.0649 15.3914 20.1554C14.678 20.2487 13.738 20.2502 12.3871 20.2502H11.6137C10.2629 20.2502 9.32287 20.2487 8.60946 20.1554C7.91745 20.0649 7.54329 19.8991 7.26987 19.6433C6.99645 19.3875 6.80612 19.0252 6.66977 18.3407C6.5292 17.6351 6.46517 16.6973 6.37531 15.3494L5.91537 8.45021Z" fill="black"/>
<path d="M9.42578 10.2538C9.83794 10.2126 10.2055 10.5133 10.2467 10.9255L10.7467 15.9256C10.7879 16.3377 10.4872 16.7052 10.075 16.7465C9.66288 16.7877 9.29534 16.487 9.25413 16.0748L8.75412 11.0748C8.7129 10.6626 9.01361 10.2951 9.42578 10.2538Z" fill="black"/>
<path d="M14.5751 10.2538C14.9872 10.2951 15.288 10.6626 15.2467 11.0748L14.7467 16.0748C14.7055 16.487 14.338 16.7877 13.9258 16.7465C13.5137 16.7052 13.2129 16.3377 13.2542 15.9256L13.7542 10.9255C13.7954 10.5133 14.1629 10.2126 14.5751 10.2538Z" fill="black"/>
</svg>
