<svg width="22" height="19" viewBox="0 0 22 19" fill="none" xmlns="http://www.w3.org/2000/svg">
<path fill-rule="evenodd" clip-rule="evenodd" d="M0.25 5.02036C0.25 2.40946 2.30359 0.25 4.88889 0.25H17.1111C19.6964 0.25 21.75 2.40946 21.75 5.02036C21.75 7.0483 20.5139 8.80042 18.75 9.48464V14.052C18.75 14.3624 18.75 14.655 18.7467 14.9295C18.7489 14.9527 18.75 14.9762 18.75 15C18.75 15.0314 18.7481 15.0623 18.7443 15.0927C18.7363 15.5455 18.7169 15.9464 18.6701 16.2945C18.5857 16.9223 18.4 17.4891 17.9445 17.9445C17.4891 18.4 16.9223 18.5857 16.2945 18.6701C15.6997 18.7501 14.9505 18.75 14.052 18.75H7.94801C7.04952 18.75 6.3003 18.7501 5.70552 18.6701C5.07773 18.5857 4.51093 18.4 4.05546 17.9445C3.59999 17.4891 3.41432 16.9223 3.32991 16.2945C3.28312 15.9464 3.26371 15.5455 3.25567 15.0927C3.25193 15.0623 3.25 15.0314 3.25 15C3.25 14.9762 3.25111 14.9527 3.25327 14.9295C3.24998 14.655 3.24999 14.3624 3.25 14.052L3.25 9.48464C1.48614 8.80042 0.25 7.0483 0.25 5.02036ZM3.25001 7.80955C3.25018 6.9723 3.25409 6.26948 3.32991 5.70552C3.41432 5.07773 3.59999 4.51093 4.05546 4.05546C4.51093 3.59999 5.07773 3.41432 5.70552 3.32991C6.3003 3.24994 7.04952 3.24997 7.948 3.25H14.052C14.9505 3.24997 15.6997 3.24994 16.2945 3.32991C16.9223 3.41432 17.4891 3.59999 17.9445 4.05546C18.4 4.51093 18.5857 5.07773 18.6701 5.70552C18.7459 6.26948 18.7498 6.9723 18.75 7.80954C19.6439 7.23798 20.25 6.21032 20.25 5.02036C20.25 3.19049 18.8214 1.75 17.1111 1.75H4.88889C3.17864 1.75 1.75 3.19049 1.75 5.02036C1.75 6.21032 2.35611 7.23799 3.25001 7.80955ZM10.25 4.75H8C7.03599 4.75 6.38843 4.75159 5.90539 4.81653C5.44393 4.87858 5.24643 4.9858 5.11612 5.11612C4.9858 5.24643 4.87858 5.44393 4.81653 5.90539C4.75159 6.38843 4.75 7.03599 4.75 8V14C4.75 14.0858 4.75001 14.1691 4.75008 14.25H17.2499C17.25 14.1691 17.25 14.0858 17.25 14V8C17.25 7.03599 17.2484 6.38843 17.1835 5.90539C17.1214 5.44393 17.0142 5.24643 16.8839 5.11612C16.7536 4.9858 16.5561 4.87858 16.0946 4.81653C15.6116 4.75159 14.964 4.75 14 4.75H11.75V8.97256L12.4306 8.17857C12.7001 7.86408 13.1736 7.82766 13.4881 8.09722C13.8026 8.36679 13.839 8.84027 13.5694 9.15476L11.5694 11.4881C11.427 11.6543 11.2189 11.75 11 11.75C10.7811 11.75 10.573 11.6543 10.4306 11.4881L8.43056 9.15476C8.16099 8.84027 8.19741 8.36679 8.51191 8.09722C8.8264 7.82766 9.29988 7.86408 9.56944 8.17857L10.25 8.97256V4.75ZM17.2178 15.75H4.78219C4.79101 15.8739 4.80224 15.9883 4.81653 16.0946C4.87858 16.5561 4.9858 16.7536 5.11612 16.8839C5.24643 17.0142 5.44393 17.1214 5.90539 17.1835C6.38843 17.2484 7.03599 17.25 8 17.25H14C14.964 17.25 15.6116 17.2484 16.0946 17.1835C16.5561 17.1214 16.7536 17.0142 16.8839 16.8839C17.0142 16.7536 17.1214 16.5561 17.1835 16.0946C17.1978 15.9883 17.209 15.8739 17.2178 15.75Z" fill="#4B5563"/>
</svg>
